<svg fill="#FFFFFF" xmlns="http://www.w3.org/2000/svg" width="284" height="72" viewBox="0 0 284 72">
  <path d="M0 47.5v6.1c0.6-0.8 1.5-1.2 2.4-1.2 0.4 0 0.7 0.1 1.1 0.2C2.1 51.3 0.8 49.6 0 47.5"/>
  <path d="M4.1 25c-2.2 1.5-3.7 3.9-3.7 6.5 0 4.9 4 6.6 8.3 8.5 4.1 1.8 8.4 3.7 8.4 8.6 0 1.9-0.7 3.5-1.9 4.7 2.4-1.6 4-4.2 4-7.2 0-5.7-4.5-7.8-8.8-9.7 -3.8-1.7-7.7-3.5-7.7-7.9C2.8 27.1 3.2 25.9 4.1 25"/>
  <path d="M14.5 25c1.4 1.1 2.5 2.7 3.1 4.9v-5.9c-0.7 0.9-1.6 1.1-2.3 1.1C15 25 14.8 25 14.5 25"/>
  <path d="M33.2 71.5h7.2c-1.9-0.9-3.2-2.7-3.5-4.9l0-0.4c-0.1-1.1-0.2-2.2-0.2-3.1V13.2c0-0.8 0-1.9 0.1-2.6l0-0.1c0.2-1.3 0.3-2.2 0.7-3 0.6-1.2 1.7-2.1 2.9-2.7h-7.3V71.5z"/>
  <path d="M58.6 25.3c-4.7 2.6-7.8 7.9-7.8 14.1 0 8.8 6.7 15.3 15.9 15.3 1.4 0 2.6-0.1 3.7-0.4 -0.6 0.1-1.2 0.1-1.9 0.1 -1.1 0-5.2-0.3-8.7-3.9 -2.3-2.3-5-6.8-4.9-15l0-0.4h-0.1l0.1-1.2C55.1 30.2 56.4 27.2 58.6 25.3"/>
  <path d="M74.2 34.5h3.8c-0.1-2.5-1.2-4.9-3-6.8 -1.8-1.9-4.2-3.3-6.8-3.8 1.3 0.5 2.4 1.2 3.3 2.2 1.9 2 2.8 4.8 2.7 8.1L74.2 34.5z"/>
  <path d="M109.4 53.7h8.6c-1.7-0.8-2.4-2.4-2.4-5V0h-0.3l-6.4 0.7c2.1 0.7 2.9 2.5 2.9 6.2v41.7C111.7 51.1 111 52.8 109.4 53.7"/>
  <path d="M98.5 23.6c-6.8 0.8-12.1 7.2-12.1 14.8 0 6.7 4.2 13.5 13.3 15 -6.5-2.7-9-9.9-9-16.3C90.7 30.2 93.8 25.1 98.5 23.6"/>
  <path d="M129.6 53.7h8.1c-1.6-0.8-2.2-2.3-2.2-4.8v-25.4h-0.3l-6.5 0.6c2.1 0.6 3 2 3 5.5v19.3C131.7 51.6 131 53 129.6 53.7"/>
  <path d="M133.7 7.2c-1.5 0-2.8 1.2-2.8 2.7 0 1.5 1.3 2.8 2.8 2.8 1.5 0 2.7-1.3 2.7-2.8C136.4 8.4 135.2 7.2 133.7 7.2"/>
  <path d="M146.8 24.4h5.5v22.2c0 4.8 3.2 8.1 8 8.1 1.8 0 3.4-0.5 5-1.5 -0.7 0.2-1.5 0.3-2.4 0.3 -4.3 0-6.8-2.9-6.8-7.7V14.3C153.6 18.8 150.5 22.2 146.8 24.4"/>
  <path d="M175.9 53.7h8.1c-1.6-0.8-2.2-2.3-2.2-4.8v-25.4h-0.3l-6.5 0.6c2.1 0.6 3 2 3 5.5v19.3C178.1 51.6 177.4 53 175.9 53.7"/>
  <path d="M180.1 7.2c-1.5 0-2.8 1.2-2.8 2.7 0 1.5 1.3 2.8 2.8 2.8 1.5 0 2.7-1.3 2.7-2.8C182.8 8.4 181.6 7.2 180.1 7.2"/>
  <path d="M215.1 24.1c4.5 2.2 7.2 7.6 7.2 15.1 0 7.3-2.6 12.7-7 14.9 6.7-1.9 11.4-7.7 11.4-14.9C226.7 31.7 222 25.9 215.1 24.1"/>
  <path d="M205.7 24.1c-6.8 1.8-11.3 7.6-11.3 15 0 7.2 4.6 12.9 11.2 14.8 -4.3-2.2-6.8-7.5-6.8-14.8C198.7 31.6 201.3 26.3 205.7 24.1"/>
  <path d="M258.1 53.7h8.3c-1.7-0.9-2.3-2.6-2.3-5.7V33.7c0-7-5-10.2-9.6-10.2 -2.1 0-4.1 0.6-6.1 1.9 1.2-0.6 2.4-0.9 3.7-0.9 3.9 0 8.1 2.6 8.1 8.3v16.5C260.2 51.7 259.5 53 258.1 53.7"/>
  <path d="M236.1 53.7h8.1c-1.9-1-2.3-3-2.3-6.5V23.5h-0.3l-6.4 0.6c2.2 0.6 2.9 2.2 2.9 5.4v17.7C238.2 51 237.6 52.8 236.1 53.7"/>
  <path d="M276.6 71.5H284V4.9h-7.3c1.8 0.9 3.2 2.7 3.5 4.9 0.2 1.4 0.3 2.5 0.3 3.4v49.9c0 0.5-0.1 1.8-0.2 2.5 -0.1 1.5-0.3 2.3-0.6 3l-0.1 0.1C278.9 70 277.8 70.9 276.6 71.5"/>
</svg>
